<?xml version="1.0" encoding="UTF-8" standalone="no"?>
<svg
   xmlns:dc="http://purl.org/dc/elements/1.1/"
   xmlns:cc="http://creativecommons.org/ns#"
   xmlns:rdf="http://www.w3.org/1999/02/22-rdf-syntax-ns#"
   xmlns:svg="http://www.w3.org/2000/svg"
   xmlns="http://www.w3.org/2000/svg"
   width="208px"
   height="61px"
   viewBox="0 0 208 61"
   version="1.1"
   id="SVGRoot">
  <defs
     id="defs3832" />
  <metadata
     id="metadata3835">
    <rdf:RDF>
      <cc:Work
         rdf:about="">
        <dc:format>image/svg+xml</dc:format>
        <dc:type
           rdf:resource="http://purl.org/dc/dcmitype/StillImage" />
        <dc:title></dc:title>
      </cc:Work>
    </rdf:RDF>
  </metadata>
  <g
     transform="translate(3.381295,1.1223022)"
     id="layer1">
    <g
       transform="matrix(0.35747692,0,0,0.35747692,29.253864,10.887798)"
       id="g53">
      <path
         id="path27"
         d="m 75.813614,54.99992 c 0.02376,-1.794806 4.045827,-0.919762 2.351344,-3.606322 -0.100751,-1.9103 -0.432063,-3.53875 -2.715001,-2.781429 -3.408299,-0.940036 1.801416,-2.602658 0.638348,-3.964618 -1.028829,-0.958012 -1.259017,-4.198708 -3.025219,-3.049157 -2.488716,1.714671 -2.99468,-1.517541 -1.193842,-2.934543 -1.002806,-1.090988 -2.468423,-2.106345 -3.648571,-3.168352 -1.065172,1.990868 -4.296998,2.302405 -3.175553,-0.530836 0.933367,-1.99116 -2.277168,-1.658356 -3.407435,-2.492198 -1.78502,-1.203617 -2.038503,4.537787 -3.885294,1.36356 0.31243,-2.32666 -1.158657,-2.581121 -3.111979,-2.275291 -2.250815,-0.715662 -2.360619,1.056298 -2.474961,2.822986 -2.576899,1.660003 -1.969009,-3.827457 -4.479057,-1.665193 -1.606529,0.575132 -3.831509,0.80343 -2.582796,2.979815 0.279905,3.42528 -2.75986,-0.263509 -3.748312,0.153196 -0.755868,1.181102 -3.798853,1.988452 -2.83405,3.45074 2.153014,1.945167 -0.363785,3.67622 -2.27644,2.024309 -1.215662,0.405568 -1.739789,2.787699 -2.692739,3.944159 1.549117,0.71488 3.336926,3.678349 0.247843,3.322675 -2.28981,-0.778093 -1.550119,2.147244 -2.08959,3.508861 -1.315162,2.415432 4.390792,1.083889 2.23382,3.77341 -2.130246,0.224941 -2.901053,1.257587 -2.012715,3.276011 -0.244227,2.33198 1.209182,2.58871 3.172483,2.222132 2.415695,2.089816 -3.18842,2.508368 -0.915183,4.458116 0.930415,1.239384 1.340489,3.966012 3.263928,2.367116 2.944775,-1.285326 1.359398,2.35374 0.847285,3.385373 1.295567,0.636003 2.614246,3.114968 3.89479,2.553048 1.355592,-2.375572 3.965975,-0.956182 2.650463,1.440563 -0.03924,1.489621 2.886217,1.316766 4.037668,2.138697 0.853534,-0.550342 2.744289,-4.376882 3.447582,-1.005235 -0.440139,2.475108 2.004587,1.598316 3.58342,1.727597 2.953017,1.067506 0.443425,-3.890128 3.475454,-3.09346 0.694654,1.781736 1.533023,3.183472 3.445126,1.746125 2.120761,-0.286862 2.90083,-1.325543 1.952491,-3.333464 1.006686,-3.303143 2.939496,2.148428 4.282348,0.0337 0.87013,-1.162345 3.873092,-1.976071 2.121023,-3.567023 -1.943026,-2.214093 1.384046,-2.791539 2.903922,-1.418744 0.596396,-1.423221 2.195069,-3.036114 2.193115,-4.346104 -2.389679,-0.788318 -2.332354,-3.830167 0.466704,-3.039879 1.849609,0.239965 0.980759,-2.843259 1.632071,-4.068156 0.791349,-1.554223 -3.36852,-0.654981 -2.572491,-2.352185 z M 55.000118,65.705467 c -7.797076,0.355718 -13.440291,-9.120941 -9.413303,-15.808361 3.38164,-6.953907 14.25578,-7.480469 18.290372,-0.882676 4.878478,6.788647 -0.509665,16.937595 -8.877069,16.691037 z"
         style="fill:#c4c4c4" />
      <path
         id="path29"
         d="M 55.000198,72.465569 C 44.682188,72.79047 35.84167,62.49651 37.736475,52.343642 c 1.257221,-10.218446 12.709451,-17.39901 22.451768,-14.02283 9.901805,2.761465 15.31327,15.111907 10.552433,24.244457 -2.807555,5.950374 -9.148931,9.974537 -15.740478,9.9003 z m 0,-30.905228 c -8.453159,-0.298944 -15.421148,8.678582 -13.015426,16.794384 1.824032,8.213885 12.155726,12.744519 19.4162,8.460296 7.520179,-3.745115 9.423052,-14.832015 3.543114,-20.846866 -2.502407,-2.78051 -6.200172,-4.431183 -9.943888,-4.407814 z"
         style="fill:#eaeaea" />
      <path
         id="path31"
         d="m 21.910519,54.99992 c -0.317008,-15.565298 11.86921,-30.111274 27.232013,-32.572541 3.066161,-0.513481 6.500463,0.246841 7.830771,-3.190647 1.166646,-1.580708 2.333291,-3.161415 3.499937,-4.742123 C 58.648785,11.677857 56.824329,8.861106 54.999874,6.0443545 35.749227,5.7770178 17.183616,18.150242 9.8914872,35.944127 2.2781289,53.424622 6.217483,75.139289 19.562353,88.776213 c 1.288109,1.656576 3.649747,-0.03627 5.454218,0.0075 1.742997,-0.313294 3.485993,-0.626587 5.22899,-0.939881 0.452203,-3.148829 0.904405,-6.297658 1.356608,-9.446487 -6.167546,-6.11518 -9.73775,-14.708826 -9.69165,-23.397458 z"
         style="fill:#eaeaea" />
      <path
         id="path33"
         d="m 88.089226,54.99992 c 2.532984,2.068221 5.065969,4.136441 7.598953,6.204662 2.755834,-2.068221 5.511671,-4.136441 8.267501,-6.204662 C 104.22303,35.74917 91.849572,17.183582 74.055601,9.8914983 68.048148,7.3443628 61.523654,6.037928 54.999874,6.0443535 c 0,5.2887365 0,10.5774735 0,15.8662105 15.565263,-0.316986 30.11125,11.869167 32.572529,27.23195 0.34529,1.932053 0.517005,3.894824 0.516823,5.857406 z"
         style="fill:#c6363c" />
      <path
         id="path35"
         d="M 88.089241,55.00008 C 88.406194,70.565308 76.219921,85.11119 60.857275,87.572621 50.377339,89.527347 39.079951,86.003205 31.602177,78.397545 27.862431,82.137291 24.122684,85.877037 20.382938,89.616783 33.692915,103.28084 55.293785,107.74148 72.950697,100.55993 90.893284,93.712176 103.70941,75.489078 103.93971,56.263633 c 0.4083,-2.367249 -3.14783,-0.82367 -4.691907,-1.263553 -3.719521,0 -7.439041,0 -11.158562,0 z"
         style="fill:#2185d0" />
      <path
         id="path37"
         d="M 54.999874,88.089271 C 46.321027,88.138685 37.708639,84.561042 31.602169,78.397377 27.862423,82.137123 24.122677,85.876869 20.382931,89.616615 33.692907,103.28067 55.293776,107.74131 72.950686,100.55976 79.179193,98.107802 84.88679,94.351671 89.616814,89.616615 85.877068,85.876869 82.137321,82.137123 78.397575,78.397377 72.282345,84.565055 63.688659,88.135424 54.999874,88.089271 Z"
         style="fill:#2185d0" />
    </g>
  </g>
  <g
     id="text17"
     style="font-style:normal;font-variant:normal;font-weight:normal;font-stretch:normal;font-size:40px;line-height:1.25;font-family:montserrat;-inkscape-font-specification:montserrat;letter-spacing:0px;word-spacing:0px;fill:#2185d0;fill-opacity:1;stroke:none"
     aria-label="C">
    <path
       id="path937"
       style="font-style:normal;font-variant:normal;font-weight:normal;font-stretch:normal;font-size:38.66666794px;font-family:Montserrat;-inkscape-font-specification:Montserrat"
       d="m 23.000515,46.158399 q -4.021334,0 -7.269334,-1.778666 -3.209333,-1.778667 -5.065333,-4.910667 -1.8173336,-3.170667 -1.8173336,-7.076001 0,-3.905333 1.8173336,-7.037333 1.856,-3.170667 5.104,-4.949334 3.248,-1.778666 7.269334,-1.778666 3.016,0 5.568,1.005333 2.552,1.005333 4.330667,2.938667 l -1.817334,1.817333 q -3.170667,-3.209333 -8.004,-3.209333 -3.209334,0 -5.838667,1.469333 -2.629333,1.469334 -4.137333,4.021334 -1.469334,2.552 -1.469334,5.722666 0,3.170667 1.469334,5.722667 1.508,2.552 4.137333,4.021334 2.629333,1.469333 5.838667,1.469333 4.872,0 8.004,-3.248 l 1.817334,1.817333 q -1.778667,1.933334 -4.369334,2.977334 -2.552,1.005333 -5.568,1.005333 z" />
  </g>
  <g
     id="text826"
     style="font-style:normal;font-variant:normal;font-weight:normal;font-stretch:normal;font-size:40px;line-height:1.25;font-family:montserrat;-inkscape-font-specification:montserrat;letter-spacing:0px;word-spacing:0px;fill:#2185d0;fill-opacity:1;stroke:none"
     aria-label="gders">
    <path
       id="path940"
       style="font-style:normal;font-variant:normal;font-weight:normal;font-stretch:normal;font-size:45.33333206px;font-family:Montserrat;-inkscape-font-specification:Montserrat;fill:#2185d0;fill-opacity:1"
       d="m 97.640627,19.514199 v 20.943999 q 0,6.074667 -2.992,8.976 -2.946666,2.946666 -8.930666,2.946666 -3.309333,0 -6.301333,-0.997333 -2.946667,-0.952 -4.805334,-2.674666 l 1.632,-2.448 q 1.722667,1.541333 4.170667,2.402666 2.493333,0.861334 5.213333,0.861334 4.533333,0 6.664,-2.130667 2.130667,-2.085333 2.130667,-6.528 v -3.037333 q -1.496,2.266666 -3.944,3.445333 -2.402667,1.178667 -5.349334,1.178667 -3.354666,0 -6.119999,-1.450667 -2.72,-1.496 -4.306667,-4.125333 -1.541333,-2.674667 -1.541333,-6.029333 0,-3.354667 1.541333,-5.984 1.586667,-2.629333 4.306667,-4.08 2.72,-1.450667 6.119999,-1.450667 3.037334,0 5.485334,1.224 2.448,1.224 3.944,3.536 V 19.514199 Z M 85.445961,39.596865 q 2.584,0 4.669333,-1.088 2.085333,-1.133333 3.218667,-3.128 1.178666,-1.994667 1.178666,-4.533333 0,-2.538667 -1.178666,-4.488 -1.133334,-1.994667 -3.218667,-3.082667 -2.04,-1.133333 -4.669333,-1.133333 -2.584,0 -4.669333,1.088 -2.04,1.088 -3.218667,3.082667 -1.133333,1.994666 -1.133333,4.533333 0,2.538666 1.133333,4.533333 1.178667,1.994667 3.218667,3.128 2.085333,1.088 4.669333,1.088 z" />
    <path
       id="path942"
       style="font-style:normal;font-variant:normal;font-weight:normal;font-stretch:normal;font-size:45.33333206px;font-family:Montserrat;-inkscape-font-specification:Montserrat;fill:#2185d0;fill-opacity:1"
       d="m 128.40142,9.722199 v 33.637332 h -3.08267 v -4.714666 q -1.45066,2.402666 -3.85333,3.672 -2.35733,1.269333 -5.34933,1.269333 -3.35467,0 -6.07467,-1.541333 -2.72,-1.541334 -4.26133,-4.306667 -1.54134,-2.765333 -1.54134,-6.301333 0,-3.536 1.54134,-6.301333 1.54133,-2.765333 4.26133,-4.261333 2.72,-1.541334 6.07467,-1.541334 2.90133,0 5.21333,1.224 2.35733,1.178667 3.85333,3.490667 V 9.722199 Z m -12.01333,31.007999 q 2.49333,0 4.488,-1.133333 2.04,-1.178667 3.17333,-3.309333 1.17867,-2.130667 1.17867,-4.850667 0,-2.72 -1.17867,-4.850666 -1.13333,-2.130667 -3.17333,-3.264 -1.99467,-1.178667 -4.488,-1.178667 -2.53867,0 -4.57867,1.178667 -1.99467,1.133333 -3.17333,3.264 -1.13334,2.130666 -1.13334,4.850666 0,2.72 1.13334,4.850667 1.17866,2.130666 3.17333,3.309333 2.04,1.133333 4.57867,1.133333 z" />
    <path
       id="path944"
       style="font-style:normal;font-variant:normal;font-weight:normal;font-stretch:normal;font-size:45.33333206px;font-family:Montserrat;-inkscape-font-specification:Montserrat;fill:#2185d0;fill-opacity:1"
       d="m 158.12804,32.434198 h -19.94666 q 0.272,3.717334 2.856,6.029334 2.584,2.266666 6.528,2.266666 2.22133,0 4.08,-0.770667 1.85866,-0.815999 3.21866,-2.357333 l 1.81334,2.085334 q -1.58667,1.903999 -3.98934,2.901333 -2.35733,0.997333 -5.21333,0.997333 -3.672,0 -6.528,-1.541333 -2.81067,-1.586667 -4.39733,-4.352 -1.58667,-2.765333 -1.58667,-6.256 0,-3.490666 1.496,-6.256 1.54133,-2.765333 4.17067,-4.306666 2.67466,-1.541334 5.984,-1.541334 3.30933,0 5.93866,1.541334 2.62934,1.541333 4.12534,4.306666 1.496,2.72 1.496,6.256 z M 146.61338,22.098199 q -3.44534,0 -5.80267,2.221333 -2.312,2.176 -2.62933,5.712 h 16.90933 q -0.31733,-3.536 -2.67467,-5.712 -2.312,-2.221333 -5.80266,-2.221333 z" />
    <path
       id="path946"
       style="font-style:normal;font-variant:normal;font-weight:normal;font-stretch:normal;font-size:45.33333206px;font-family:Montserrat;-inkscape-font-specification:Montserrat;fill:#2185d0;fill-opacity:1"
       d="m 167.80741,24.183532 q 1.13334,-2.402667 3.35467,-3.626667 2.26667,-1.224 5.576,-1.224 v 3.128 l -0.77067,-0.04533 q -3.76266,0 -5.89333,2.312 -2.13067,2.312 -2.13067,6.482666 v 12.149333 h -3.21866 V 19.514199 h 3.08266 z" />
    <path
       id="path948"
       style="font-style:normal;font-variant:normal;font-weight:normal;font-stretch:normal;font-size:45.33333206px;font-family:Montserrat;-inkscape-font-specification:Montserrat;fill:#2185d0;fill-opacity:1"
       d="m 189.09071,43.586198 q -2.90133,0 -5.576,-0.816 -2.62933,-0.861333 -4.12533,-2.130667 l 1.45066,-2.538666 q 1.496,1.178667 3.76267,1.949333 2.26667,0.725333 4.71466,0.725333 3.264,0 4.80534,-0.997333 1.58666,-1.042666 1.58666,-2.901333 0,-1.314667 -0.86133,-2.04 -0.86133,-0.770667 -2.176,-1.133333 -1.31467,-0.408 -3.49067,-0.770667 -2.90133,-0.544 -4.66933,-1.088 -1.768,-0.589333 -3.03733,-1.949333 -1.224,-1.36 -1.224,-3.762667 0,-2.992 2.49333,-4.896 2.49334,-1.904 6.936,-1.904 2.312,0 4.624,0.634667 2.312,0.589333 3.808,1.586667 l -1.40533,2.584 q -2.94667,-2.04 -7.02667,-2.04 -3.08266,0 -4.66933,1.088 -1.54133,1.088 -1.54133,2.856 0,1.36 0.86133,2.175999 0.90667,0.816 2.22133,1.224 1.31467,0.362667 3.62667,0.770667 2.856,0.544 4.57866,1.088 1.72267,0.544 2.94667,1.858667 1.224,1.314666 1.224,3.626666 0,3.128 -2.62933,4.986667 -2.584,1.813333 -7.208,1.813333 z" />
  </g>
</svg>
